<?xml version="1.0" encoding="UTF-8" standalone="no"?>
<!-- Created with Inkscape (http://www.inkscape.org/) -->

<svg
   xmlns:dc="http://purl.org/dc/elements/1.1/"
   xmlns:cc="http://creativecommons.org/ns#"
   xmlns:rdf="http://www.w3.org/1999/02/22-rdf-syntax-ns#"
   xmlns:svg="http://www.w3.org/2000/svg"
   xmlns="http://www.w3.org/2000/svg"
   version="1.1"
   width="744.09448"
   height="1052.3622"
   id="svg3431">
  <defs
     id="defs3433" />
  <metadata
     id="metadata3436">
    <rdf:RDF>
      <cc:Work
         rdf:about="">
        <dc:format>image/svg+xml</dc:format>
        <dc:type
           rdf:resource="http://purl.org/dc/dcmitype/StillImage" />
        <dc:title></dc:title>
      </cc:Work>
    </rdf:RDF>
  </metadata>
  <g
     id="layer1">
    <g
       transform="matrix(2.4728908,0,0,2.4728908,130.88498,67.979195)"
       id="g4207"
       style="display:inline">
      <g
         transform="matrix(0.21571042,0,0,0.21571042,-55.358988,302.75251)"
         id="g3911">
        <rect
           width="727.56305"
           height="1565.981"
           rx="99.453865"
           ry="100"
           x="349.1806"
           y="-1324.2236"
           id="rect2996"
           style="opacity:0.56372549;fill:#ffffff;fill-opacity:1;fill-rule:evenodd;stroke:none" />
        <rect
           width="753.97009"
           height="1592.9546"
           rx="110"
           ry="110"
           x="336.18292"
           y="-1337.2836"
           id="rect2998"
           style="fill:none;stroke:#878787;stroke-width:2;stroke-miterlimit:4;stroke-opacity:1;stroke-dasharray:none" />
        <path
           d="m 216.8877,-674.52045 a 13.698171,13.698171 0 1 1 -27.39634,0 13.698171,13.698171 0 1 1 27.39634,0 z"
           transform="translate(509.17948,-584.68357)"
           id="path3768"
           style="fill:#b3b3b3;fill-opacity:1;fill-rule:evenodd;stroke:#878787;stroke-width:2;stroke-miterlimit:4;stroke-opacity:1;stroke-dasharray:none" />
        <path
           d="m 216.8877,-674.52045 a 13.698171,13.698171 0 1 1 -27.39634,0 13.698171,13.698171 0 1 1 27.39634,0 z"
           transform="matrix(0.62721428,0,0,0.62721428,480.16318,-776.83587)"
           id="path3768-6"
           style="fill:#b3b3b3;fill-opacity:1;fill-rule:evenodd;stroke:#878787;stroke-width:3.57356644;stroke-miterlimit:4;stroke-opacity:1;stroke-dasharray:none" />
        <rect
           width="125.33826"
           height="15.867047"
           rx="7.9905992"
           ry="15.867047"
           x="648.44415"
           y="-1207.8358"
           id="rect3788"
           style="fill:#b3b3b3;fill-opacity:1;fill-rule:evenodd;stroke:#878787;stroke-width:2.2413919;stroke-miterlimit:4;stroke-opacity:1;stroke-dasharray:none" />
        <rect
           width="649.20715"
           height="1145.1376"
           rx="4.4301162"
           ry="4.4124813"
           x="387.49774"
           y="-1113.8781"
           id="rect3788-3"
           style="fill:#f2f2f2;fill-opacity:1;fill-rule:evenodd;stroke:#a3a3a3;stroke-width:6.95983458;stroke-linejoin:round;stroke-miterlimit:4;stroke-opacity:1;stroke-dasharray:none" />
        <path
           d="m 266.65772,726.57404 a 63.239887,63.239887 0 1 1 -126.47978,0 63.239887,63.239887 0 1 1 126.47978,0 z"
           transform="matrix(1.008552,0,0,1.008552,507.78228,-593.97929)"
           id="path3808"
           style="fill:#ffffff;fill-opacity:1;fill-rule:evenodd;stroke:#c1c1c1;stroke-width:7;stroke-linejoin:round;stroke-miterlimit:4;stroke-opacity:1;stroke-dasharray:none" />
        <rect
           width="121.88303"
           height="7.2645516"
           x="839.45929"
           y="-1345.7471"
           id="rect3831"
           style="fill:#d9d9d9;fill-opacity:1;fill-rule:evenodd;stroke:none" />
        <rect
           width="72.715492"
           height="7.2645493"
           x="1044.5447"
           y="329.52582"
           transform="matrix(-0.00175263,-0.99999846,0.99999981,-6.2381714e-4,0,0)"
           id="rect3831-1"
           style="fill:#d9d9d9;fill-opacity:1;fill-rule:evenodd;stroke:none;display:inline" />
        <rect
           width="68.83448"
           height="1.3188365"
           x="1045.6459"
           y="326.69211"
           transform="matrix(-3.3611696e-4,-0.99999994,0.99999471,-0.00325278,0,0)"
           id="rect3831-1-0"
           style="fill:#bfbfbf;fill-opacity:1;fill-rule:evenodd;stroke:none;display:inline" />
        <rect
           width="56.050457"
           height="7.2645488"
           x="910.39551"
           y="330.05646"
           transform="matrix(-0.00227373,-0.99999742,0.99999988,-4.8084941e-4,0,0)"
           id="rect3831-1-03"
           style="fill:#d9d9d9;fill-opacity:1;fill-rule:evenodd;stroke:none;display:inline" />
        <rect
           width="53.058846"
           height="1.3188336"
           x="911.24261"
           y="327.02869"
           transform="matrix(-4.3605238e-4,-0.9999999,0.99999686,-0.00250731,0,0)"
           id="rect3831-1-0-3"
           style="fill:#bfbfbf;fill-opacity:1;fill-rule:evenodd;stroke:none;display:inline" />
        <rect
           width="56.050457"
           height="7.2645488"
           x="777.38293"
           y="329.63577"
           transform="matrix(-0.00227373,-0.99999742,0.99999988,-4.8084941e-4,0,0)"
           id="rect3831-1-03-5"
           style="fill:#d9d9d9;fill-opacity:1;fill-rule:evenodd;stroke:none;display:inline" />
        <rect
           width="53.058846"
           height="1.3188336"
           x="778.23059"
           y="326.85242"
           transform="matrix(-4.3605238e-4,-0.9999999,0.99999686,-0.00250731,0,0)"
           id="rect3831-1-0-3-4"
           style="fill:#bfbfbf;fill-opacity:1;fill-rule:evenodd;stroke:none;display:inline" />
      </g>
    </g>
  </g>
</svg>
