<?xml version="1.0" encoding="UTF-8" standalone="no"?>
<!-- Created with Inkscape (http://www.inkscape.org/) -->

<svg
   xmlns:dc="http://purl.org/dc/elements/1.1/"
   xmlns:cc="http://creativecommons.org/ns#"
   xmlns:rdf="http://www.w3.org/1999/02/22-rdf-syntax-ns#"
   xmlns:svg="http://www.w3.org/2000/svg"
   xmlns="http://www.w3.org/2000/svg"
   version="1.1"
   width="744.09448"
   height="1052.3622"
   id="svg3431">
  <defs
     id="defs3433" />
  <metadata
     id="metadata3436">
    <rdf:RDF>
      <cc:Work
         rdf:about="">
        <dc:format>image/svg+xml</dc:format>
        <dc:type
           rdf:resource="http://purl.org/dc/dcmitype/StillImage" />
        <dc:title></dc:title>
      </cc:Work>
    </rdf:RDF>
  </metadata>
  <g
     id="layer1">
    <g
       transform="matrix(1.4003654,0,0,1.4003654,-271.83977,265.43275)"
       id="g4171">
      <g
         transform="matrix(0.96748786,0,0,0.96748786,-17.204449,-1.5766657)"
         id="g4189">
        <g
           transform="matrix(0.69139303,0,0,0.69139303,233.09293,-324.89536)"
           id="g4107"
           style="stroke:#878787;stroke-opacity:0.23626374">
          <rect
             width="690.93597"
             height="511.97504"
             rx="4.1161165"
             ry="4.1161165"
             x="30.453096"
             y="-1006.619"
             transform="scale(1,-1)"
             id="rect3974"
             style="fill:#cccccc;fill-opacity:1;fill-rule:evenodd;stroke:#878787;stroke-opacity:0.23626374" />
          <g
             transform="translate(-314.95589,402.06959)"
             id="g4097"
             style="stroke:#878787;stroke-opacity:0.23626374">
            <g
               transform="translate(0,80)"
               id="g4022"
               style="stroke:#878787;stroke-opacity:0.23626374">
              <g
                 transform="translate(-0.36519662,-31.831449)"
                 id="g4016"
                 style="opacity:0.7254902;stroke:#878787;stroke-opacity:0.23626374">
                <rect
                   width="691.04938"
                   height="35.030331"
                   rx="0"
                   ry="0"
                   x="345.76254"
                   y="81.464432"
                   id="rect3995"
                   style="fill:#f2f2f2;fill-opacity:1;fill-rule:evenodd;stroke:#878787;stroke-opacity:0.23626374" />
                <path
                   d="m 425.66281,57.442291 188.67438,-0.252759 c 0,0 5.80687,0.207803 8.875,12.147746 3.38166,11.623326 8.31066,12.103068 8.31066,12.103068 l -221.04754,0.04468 c 0,0 4.48353,-0.35764 7.79303,-12.705345 3.3095,-12.347705 7.39447,-11.337392 7.39447,-11.337388 z"
                   id="rect3995-2"
                   style="fill:#f2f2f2;fill-opacity:1;fill-rule:evenodd;stroke:#878787;stroke-width:1;stroke-opacity:0.23626374" />
              </g>
              <rect
                 width="21.1875"
                 height="16.643435"
                 rx="1.9911175"
                 ry="2.1380022"
                 x="613.53198"
                 y="31.998005"
                 transform="matrix(1,0,0.36425775,0.93129818,0,0)"
                 id="rect4020"
                 style="opacity:0.7254902;fill:#f2f2f2;fill-opacity:1;fill-rule:evenodd;stroke:#878787;stroke-opacity:0.23626374" />
            </g>
            <rect
               width="55.077999"
               height="24.925514"
               rx="4.1161165"
               ry="4.1161165"
               x="352.423"
               y="134.53758"
               id="rect4028"
               style="fill:#f9f9f9;fill-opacity:1;fill-rule:evenodd;stroke:#878787;stroke-opacity:0.23626374" />
            <rect
               width="28.826"
               height="24.926001"
               rx="4.1160002"
               ry="4.1160002"
               x="413.56909"
               y="134.53758"
               id="rect4028-4"
               style="color:#000000;fill:#f9f9f9;fill-opacity:1;fill-rule:evenodd;stroke:#878787;stroke-opacity:0.23626374;marker:none;visibility:visible;display:inline;overflow:visible;enable-background:accumulate" />
            <rect
               width="580.92603"
               height="24.926001"
               rx="4.1160002"
               ry="4.1160002"
               x="448.48224"
               y="134.59279"
               id="rect4028-4-3"
               style="color:#000000;fill:#f9f9f9;fill-opacity:1;fill-rule:evenodd;stroke:#878787;stroke-opacity:0.23626374;marker:none;visibility:visible;display:inline;overflow:visible;enable-background:accumulate" />
          </g>
          <rect
             width="690.94037"
             height="439.88553"
             x="30.44208"
             y="566.73651"
             id="rect4095"
             style="color:#000000;fill:#ffffff;fill-opacity:1;fill-rule:evenodd;stroke:#878787;stroke-width:1;stroke-opacity:0.23626374;marker:none;visibility:visible;display:inline;overflow:visible;enable-background:accumulate" />
        </g>
        <g
           transform="matrix(0.56958722,0,0,0.56958722,-211.76907,92.338771)"
           id="g4166">
          <path
             d="m 846.14166,-109.14909 a 6.805903,6.805903 0 1 1 -13.61181,0 6.805903,6.805903 0 1 1 13.61181,0 z"
             transform="matrix(1.038961,0,0,1.038961,-32.524615,4.1641736)"
             id="path4128"
             style="color:#000000;fill:#6f6f6f;fill-opacity:1;stroke:none;stroke-width:1;marker:none;visibility:visible;display:inline;overflow:visible;enable-background:accumulate" />
          <path
             d="m 846.14166,-109.14909 a 6.805903,6.805903 0 1 1 -13.61181,0 6.805903,6.805903 0 1 1 13.61181,0 z"
             transform="matrix(1.038961,0,0,1.038961,-11.488164,4.0757837)"
             id="path4128-1"
             style="color:#000000;fill:#6f6f6f;fill-opacity:1;stroke:none;stroke-width:1;marker:none;visibility:visible;display:inline;overflow:visible;enable-background:accumulate" />
          <path
             d="m 846.14166,-109.14909 a 6.805903,6.805903 0 1 1 -13.61181,0 6.805903,6.805903 0 1 1 13.61181,0 z"
             transform="matrix(1.038961,0,0,1.038961,9.4598743,4.0757837)"
             id="path4128-1-9"
             style="color:#000000;fill:#6f6f6f;fill-opacity:1;stroke:none;stroke-width:1;marker:none;visibility:visible;display:inline;overflow:visible;enable-background:accumulate" />
        </g>
      </g>
    </g>
  </g>
</svg>
